<svg xmlns="http://www.w3.org/2000/svg" x="0px" y="0px" width="40" height="" viewBox="0 0 353.7 445.2" style="enable-background:new 0 0 353.7 445.2" xml:space="preserve" aria-label="Ciné Télé Revue"><style type="text/css">.logo_svg__st4{opacity:0.8;fill:url(#logo_svg__SVGID_00000155124626491474654080000009781873034854140808_)}</style><path d="M348.6,379.3c0,1.7-1.4,3.1-3.1,3.1h-17.6V437c0,1.7-1.4,3.1-3.1,3.1H27.9c-1.7,0-3.1-1.4-3.1-3.1v-54.5H8.2 c-1.7,0-3.1-1.4-3.1-3.1v-82.2c0-1.7,1.4-3.1,3.1-3.1h16.6V8.2c0-1.7,1.4-3.1,3.1-3.1h296.9c1.7,0,3.1,1.4,3.1,3.1V294h17.6 c1.7,0,3.1,1.4,3.1,3.1V379.3z" style="fill:#FFFFFF"></path><rect x="31.8" y="12.2" width="289.5" height="281.9" style="fill-rule:evenodd;clip-rule:evenodd;fill:#E30613"></rect><rect x="31.8" y="382.4" width="289.5" height="51.2" style="fill-rule:evenodd;clip-rule:evenodd;fill:#E30613"></rect><path d="M121.2,57.8c13.4,0,24.9,8.4,29.5,20.2L183,67.2c-9.1-25.3-33.3-43.4-61.7-43.4l0,0 c-36.2,0-65.6,29.4-65.6,65.6S85,155,121.2,155c28,0,51.9-17.6,61.3-42.3l-31.9-11.9c-4.6,11.8-16.1,20.2-29.5,20.2 c-17.4,0-31.6-14.2-31.6-31.6S103.8,57.8,121.2,57.8" style="fill:#FFFFFF"></path><rect x="241.4" y="30.8" width="35.3" height="114.2" style="fill:#FFFFFF"></rect><polygon points="163.9,278.8 132.4,278.8 89.2,219 89.1,278.8 55.6,278.8 55.7,163.1 89.9,163.1 130.4,224.3 130.4,163 163.9,163 " style="fill:#FFFFFF"></polygon><polygon points="301.7,196.2 301.7,163 267.6,163 276.7,152.5 241.3,152.5 230.1,163 198.4,163 198.4,278.8 301.7,278.8 301.7,245.5 232.9,245.5 232.9,231.1 290.4,231.1 290.4,209.9 232.9,209.9 232.9,196.2 " style="fill:#FFFFFF"></polygon><polygon points="104.8,424.9 146.2,424.9 146.2,417.1 121.2,417.1 121.2,412.2 141.5,412.2 141.5,404.6 121.2,404.6 121.2,400.1 144.9,400.1 144.9,392.5 104.8,392.5 " style="fill:#FFFFFF"></polygon><path d="M91.5,424.9" style="opacity:0.65;fill:#FFFFFF"></path><polygon points="266.5,424.9 308,424.9 308,417.1 283,417.1 283,412.2 303.2,412.2 303.2,404.6 283,404.6 283,400.1 306.8,400.1 306.8,392.5 266.5,392.5 " style="fill:#FFFFFF"></polygon><path d="M239.3,413.5c0,2.1-3.3,3.9-7.5,3.9c-3.9,0-6.7-1.8-6.7-3.9v-21h-16.7v17.1l0,3.9c0,2,1.2,12.1,23.8,12.1 c22.1,0,23.8-9.7,23.8-12.1l0-1.5v-19.5h-16.7V413.5z" style="fill:#FFFFFF"></path><polygon points="184.7,392.5 176,412.8 167.7,392.5 151.5,392.5 168.2,424.9 170.9,424.9 181,424.9 184.5,424.9 201.5,392.5 " style="fill:#FFFFFF"></polygon><path d="M95.7,423.6c0,0-0.9-0.1-0.7-4c0.2-4.6-0.2-7.6-3.8-8.7c-2.9-0.9-3.8-1-4.1-1.1c-0.1-0.1,0-0.3,0-0.4 c0-0.3,2.8,0.6,5.9-2.4c3.1-3,2.3-7.2,1.9-8.1c-0.3-0.8-2-6.3-17.2-6.4l0,0H50v32.4l16.5,0v-11.3h2.8H72c2.2,0,7.1,0.4,7.3,3 c0.2,2.6,0.2,4.8,0.5,7.2c0.1,0.6,0.1,1.1,0.6,1.1c0.4,0,16.5,0,16.5,0v-1.3H95.7z M70.9,406.4h-4.4v-6.2l7.5,0.1c0,0,0.4,0,0.4,0 s0.1,0,0.9,0s4.6,0.5,4.6,2.9s-4.3,3.2-5.6,3.2H70.9z" style="fill:#FFFFFF"></path><linearGradient id="logo_svg__SVGID_1_" gradientUnits="userSpaceOnUse" x1="93.2272" y1="202.0692" x2="260.2272" y2="474.0692"><stop offset="0" style="stop-color:#312783"></stop><stop offset="0.4413" style="stop-color:#312783"></stop><stop offset="0.5303" style="stop-color:#006EB7"></stop><stop offset="0.6083" style="stop-color:#164194"></stop><stop offset="0.7849" style="stop-color:#164194"></stop><stop offset="0.837" style="stop-color:#006EB7"></stop><stop offset="0.8938" style="stop-color:#164194"></stop></linearGradient><rect x="11.1" y="299.5" width="331" height="76.7" style="fill:url(#logo_svg__SVGID_1_)"></rect><linearGradient id="logo_svg__SVGID_00000042704427103832115660000011868345290216430498_" gradientUnits="userSpaceOnUse" x1="144.4443" y1="170.6234" x2="311.4443" y2="442.6234"><stop offset="0" style="stop-color:#312783"></stop><stop offset="0.4413" style="stop-color:#312783"></stop><stop offset="0.5303" style="stop-color:#006EB7"></stop><stop offset="0.6083" style="stop-color:#164194"></stop><stop offset="0.7849" style="stop-color:#164194"></stop><stop offset="0.837" style="stop-color:#006EB7"></stop><stop offset="0.8938" style="stop-color:#164194"></stop></linearGradient><path style="opacity:0.8;fill:url(#logo_svg__SVGID_00000042704427103832115660000011868345290216430498_)" d="M345.5,288.9H333V8.2 c0-4.5-3.7-8.2-8.2-8.2H27.9c-4.5,0-8.2,3.7-8.2,8.2v280.7H8.2c-4.5,0-8.2,3.7-8.2,8.2v82.2c0,4.5,3.7,8.2,8.2,8.2h11.5V437 c0,4.5,3.7,8.2,8.2,8.2h296.9c4.5,0,8.2-3.7,8.2-8.2v-49.4h12.5c4.5,0,8.2-3.7,8.2-8.2v-82.2C353.7,292.6,350.1,288.9,345.5,288.9z  M348.6,379.3c0,1.7-1.4,3.1-3.1,3.1h-17.6V437c0,1.7-1.4,3.1-3.1,3.1H27.9c-1.7,0-3.1-1.4-3.1-3.1v-54.5H8.2 c-1.7,0-3.1-1.4-3.1-3.1v-82.2c0-1.7,1.4-3.1,3.1-3.1h16.6V8.2c0-1.7,1.4-3.1,3.1-3.1h296.9c1.7,0,3.1,1.4,3.1,3.1V294h17.6 c1.7,0,3.1,1.4,3.1,3.1V379.3z"></path><polygon points="91.6,313.4 22.2,313.4 22.2,326.4 44.4,326.4 44.4,362 69.7,362 69.7,326.4 91.6,326.4 " style="fill:#FFFFFF"></polygon><polygon points="110.1,362 173.3,362 173.3,350.3 135.2,350.3 135.2,343.3 166.5,343.3 166.5,331.5 135.2,331.5 135.2,325.2 171.7,325.2 171.7,313.4 110.1,313.4 " style="fill:#FFFFFF"></polygon><polygon points="270.4,362 333.6,362 333.6,350.3 295.5,350.3 295.5,343.3 326.7,343.3 326.7,331.5 295.5,331.5 295.5,325.2 332,325.2 332,313.4 270.4,313.4 " style="fill:#FFFFFF"></polygon><polygon points="218.5,350.3 218.5,313.4 193,313.4 193,362 212.2,362 218.5,362 251.9,362 251.9,350.3 " style="fill:#FFFFFF"></polygon></svg>