<svg xmlns="http://www.w3.org/2000/svg" viewBox="0 0 588.41 42.96" class="logo-lolaLiza">
    <defs><style>.cls-1{fill:#ce132e;}.cls-2{fill:#ce0e2d;}</style></defs>
    <polygon class="cls-1" points="502.83 0.64 473.65 0.64 473.65 7.57 490.69 7.57 469.86 42.26 501.16 42.26 501.16 35.38 482 35.38 502.83 0.64"></polygon>
    <polygon class="cls-1" points="331.68 35.38 331.68 0.64 324.59 0.64 324.59 42.26 353.86 42.26 353.86 35.38 331.68 35.38"></polygon>
    <path class="cls-2" d="M241.5,276.32a21.48,21.48,0,1,0,21.22,21.48A21.49,21.49,0,0,0,241.5,276.32Zm-.06,36a14.56,14.56,0,1,1,14.14-14.55A14.47,14.47,0,0,1,241.44,312.35Z" transform="translate(-150 -276.32)"></path>
    <polygon class="cls-2" points="163.41 35.38 163.41 0.64 156.33 0.64 156.33 42.26 185.59 42.26 185.59 35.38 163.41 35.38"></polygon>
    <polygon class="cls-2" points="7.08 35.38 7.08 0.64 0 0.64 0 42.26 29.26 42.26 29.26 35.38 7.08 35.38"></polygon>
    <rect class="cls-1" x="405.39" y="0.64" width="7.08" height="41.62"></rect>
    <path class="cls-2" d="M404.21,277.54H398l-15.8,40.85h7.5l3.89-10.83h14.48L412,318.39h7.77Zm1.54,23.63H396L401,287.72Z" transform="translate(-150 -276.32)"></path>
    <path class="cls-1" d="M722.85,277.54h-6.17l-15.8,40.85h7.49l3.89-10.83h14.49l3.89,10.83h7.77Zm1.54,23.63h-9.74l5-13.45Z" transform="translate(-150 -276.32)"></path>
</svg>