<svg width="5000" height="1563" viewBox="0 0 5000 1563" fill="none" xmlns="http://www.w3.org/2000/svg">
<path d="M1024.6 1431.78C1388.24 1431.78 1683.03 1136.99 1683.03 773.35C1683.03 409.709 1388.24 114.92 1024.6 114.92C660.959 114.92 366.17 409.709 366.17 773.35C366.17 1136.99 660.959 1431.78 1024.6 1431.78Z" fill="#1AD940"/>
<path d="M896.52 1117.09H1071.46C1085.08 1117.09 1096.11 1106.05 1096.11 1092.44V843C1096.11 703.47 1143.46 639.93 1223.19 639.93C1286.72 639.93 1312.89 694.75 1312.89 768.26V1092.44C1312.89 1106.06 1323.93 1117.09 1337.54 1117.09H1512.48C1526.1 1117.09 1537.13 1106.05 1537.13 1092.44V843C1537.13 703.47 1584.48 639.93 1664.21 639.93C1727.74 639.93 1753.91 694.75 1753.91 768.26V1092.44C1753.91 1106.06 1764.95 1117.09 1778.56 1117.09H1953.51C1967.13 1117.09 1978.16 1106.05 1978.16 1092.44V734.61C1978.16 558.95 1935.79 453.05 1748.92 453.05C1665.38 453.05 1586.95 483.74 1534.04 554.39C1526.98 563.82 1512.48 563.64 1506.67 553.39C1468.08 485.29 1398.27 453.05 1315.37 453.05C1213.21 453.05 1123.51 494.16 1078.66 587.6H1076.17V492.65C1076.17 479.03 1065.13 468 1051.52 468H896.52C882.9 468 871.87 479.04 871.87 492.65V1092.43C871.87 1106.05 882.91 1117.09 896.52 1117.09Z" fill="white"/>
<path d="M3274.95 1122.41C3287.72 1120.75 3297.03 1109.56 3296.37 1096.71L3291.49 1001.52C3290.74 986.88 3277.45 976.11 3262.98 978.46C3249.08 980.72 3235.09 982.54 3221.54 982.54C3150.54 982.54 3131.84 942.68 3131.84 864.19V641.42C3131.84 632.34 3139.2 624.98 3148.28 624.98H3264.17C3277.79 624.98 3288.82 613.94 3288.82 600.33V492.66C3288.82 479.04 3277.78 468.01 3264.17 468.01H3148.28C3139.2 468.01 3131.84 460.65 3131.84 451.57V276.03C3131.84 264.95 3121.11 257.05 3110.53 260.34L2922.89 318.65C2916.02 320.79 2911.33 327.15 2911.33 334.34V451.57C2911.33 460.65 2903.97 468.01 2894.89 468.01H2803.91C2790.29 468.01 2779.26 479.05 2779.26 492.66V600.33C2779.26 613.95 2790.3 624.98 2803.91 624.98H2891.15C2900.23 624.98 2907.59 632.34 2907.59 641.42V889.1C2907.59 1043.59 2956.17 1132.04 3156.76 1132.04C3202.9 1132.04 3239.75 1126.98 3274.95 1122.41Z" fill="white"/>
<path d="M3411.89 1117.09H3586.83C3600.45 1117.09 3611.48 1106.05 3611.48 1092.44V843C3611.48 715.93 3670.04 639.93 3774.69 639.93C3791.64 639.93 3808.08 639.93 3824.33 641.97C3838.62 643.76 3851.53 633.45 3852.39 619.07L3860.56 483.02C3861.34 470.08 3851.99 458.81 3839.14 457.08C3822.13 454.79 3803.72 453.06 3785.91 453.06C3688.72 453.06 3632.66 505.39 3594.04 587.61H3591.55V492.66C3591.55 479.04 3580.51 468.01 3566.9 468.01H3411.89C3398.27 468.01 3387.24 479.05 3387.24 492.66V1092.44C3387.24 1106.05 3398.27 1117.09 3411.89 1117.09Z" fill="white"/>
<path d="M4643.28 793.17C4643.28 577.64 4480.07 453.05 4265.79 453.05C4051.51 453.05 3888.31 577.63 3888.31 793.17C3888.31 1007.45 4051.52 1132.04 4265.79 1132.04C4480.07 1132.04 4643.28 1007.45 4643.28 793.17ZM4120.02 793.17C4120.02 695.99 4162.38 610.03 4265.79 610.03C4369.2 610.03 4411.56 695.99 4411.56 793.17C4411.56 889.1 4369.21 975.06 4265.79 975.06C4162.38 975.06 4120.02 889.1 4120.02 793.17Z" fill="white"/>
<path d="M2068.28 758.91C2064.23 810.67 2070.43 862.77 2086.95 908.76C2123.88 1011.56 2206.13 1088.15 2311.08 1116.54C2422.1 1146.57 2544.34 1130.33 2650.76 1090.37C2663.2 1085.7 2671.62 1073.07 2671.62 1058.76C2671.62 1027.12 2671.62 995.47 2671.62 963.83C2671.62 940.06 2649.52 924.36 2629.23 933.16C2576.3 956.12 2523.29 965.3 2475.65 965.3C2438.93 965.3 2400.77 961.48 2366.91 946.33C2357.48 942.11 2348.45 936.99 2340.06 930.95C2332.98 925.84 2326.36 920.08 2320.39 913.71C2312.83 905.63 2306.17 896.53 2301.44 886.49C2300.27 884.01 2299.04 881.43 2298.2 878.8C2297.45 876.44 2297.05 873.93 2297.39 871.48C2297.93 867.59 2300.35 864.09 2303.59 861.88C2308.02 858.86 2313.83 857.91 2319.06 857.33C2325.04 856.66 2331.06 856.74 2337.06 856.8C2337.47 856.8 2337.89 856.81 2338.3 856.81C2339.59 856.82 2340.88 856.83 2342.16 856.83C2354.69 856.84 2367.22 856.85 2379.75 856.87C2392.28 856.88 2404.81 856.89 2417.34 856.91C2429.87 856.92 2442.4 856.93 2454.93 856.95C2467.46 856.96 2479.99 856.97 2492.52 856.99C2505.05 857 2517.58 857.01 2530.11 857.03C2542.64 857.04 2555.17 857.05 2567.7 857.07C2580.23 857.08 2592.76 857.09 2605.29 857.11C2617.82 857.12 2630.35 857.13 2642.88 857.15C2655.41 857.16 2667.94 857.17 2680.47 857.19C2685.67 857.19 2690.87 857.2 2696.07 857.2C2707.58 857.21 2720.91 856.34 2727.64 847C2732.03 840.9 2732.24 832.82 2732.18 825.3C2731.76 768.47 2726 711.14 2707.92 657.26C2689.84 603.38 2658.77 552.89 2614.04 517.83C2564.36 478.89 2500.79 461.1 2437.86 456.34C2345.41 449.34 2247.98 470.63 2176.8 530.03C2111.42 584.53 2075.14 671.25 2068.28 758.91ZM2285.03 712.15C2294.87 646.19 2333.51 595.08 2407.61 595.08C2490.13 595.08 2526.25 646.73 2531.51 713.2C2532.26 722.72 2524.68 730.88 2515.13 730.88H2301.29C2291.31 730.87 2283.55 722.01 2285.03 712.15Z" fill="white"/>
</svg>
