<?xml version="1.0" encoding="utf-8"?>
<!-- Generator: Adobe Illustrator 26.0.2, SVG Export Plug-In . SVG Version: 6.00 Build 0)  -->
<svg version="1.1" id="Calque_1" xmlns="http://www.w3.org/2000/svg" xmlns:xlink="http://www.w3.org/1999/xlink" x="0px" y="0px"
	 viewBox="0 0 180 50" style="enable-background:new 0 0 180 50;" xml:space="preserve">
<style type="text/css">
	.st0{fill:#1A171B;}
	.st1{fill:#FFDD00;}
	.st2{fill:#FFFFFF;}
</style>
<g>
	<path class="st0" d="M176.5,0H3.5C1.5,0,0,1.6,0,3.5v42.9c0,2,1.6,3.5,3.5,3.5h173c2,0,3.6-1.6,3.6-3.5V3.5
		C180.1,1.6,178.5,0,176.5,0z"/>
	<path class="st1" d="M28.2,24.2c0,0.5-0.1,1.1-0.2,1.6s-0.3,1-0.6,1.4c-0.4,0.6-0.9,1.2-1.5,1.6c-0.5,0.3-0.9,0.6-1.5,0.8
		c-0.5,0.2-1.1,0.4-1.6,0.5c-0.6,0.1-1.2,0.2-1.8,0.2c-0.6,0-1.2,0.1-1.9,0.1s-1.3,0-1.9-0.1c-0.6,0-1.2-0.1-1.8-0.2
		c-0.7-0.1-1.4-0.3-2.1-0.6V42H10V20.2c0-1,0.2-2.1,0.8-3c0.4-0.7,0.9-1.2,1.5-1.6c0.4-0.3,0.9-0.6,1.4-0.7c0.5-0.2,1.1-0.3,1.6-0.5
		c1.2-0.2,2.5-0.3,3.7-0.3c0.6,0,1.2,0,1.7,0.1c0.5,0,1.1,0.1,1.6,0.2c0.7,0.1,1.5,0.3,2.2,0.6s1.3,0.6,1.9,1.1
		c0.6,0.5,1,1.1,1.3,1.8c0.3,0.7,0.4,1.5,0.4,2.3C28.2,20.2,28.2,24.2,28.2,24.2z M24.9,20.2c0-0.3,0-0.5-0.1-0.8
		c0-0.2-0.1-0.4-0.2-0.5c-0.1-0.2-0.4-0.4-0.6-0.6s-0.5-0.3-0.7-0.4c-0.4-0.1-0.7-0.2-1.1-0.3c-0.5-0.1-0.9-0.1-1.4-0.2
		c-0.5,0-1.1-0.1-1.7-0.1c-0.9,0-1.9,0-2.8,0.2c-1.2,0.2-2,0.5-2.4,1c-0.2,0.2-0.4,0.4-0.5,0.6c-0.1,0.3-0.2,0.7-0.2,1.1v4
		c0,0.4,0.1,0.7,0.2,1.1c0.1,0.3,0.2,0.5,0.5,0.6c0.3,0.2,0.6,0.4,0.9,0.5c0.5,0.2,1,0.3,1.5,0.4c0.4,0.1,0.8,0.1,1.3,0.1s1,0,1.5,0
		s1,0,1.5,0c0.4,0,0.9-0.1,1.3-0.1c0.5-0.1,1-0.2,1.5-0.4c0.3-0.1,0.6-0.3,0.9-0.5c0.2-0.2,0.4-0.4,0.5-0.6c0.1-0.3,0.2-0.7,0.2-1.1
		L24.9,20.2z"/>
	<path class="st1" d="M30.6,30V19.6c0-1,0.2-1.9,0.6-2.8c0.4-0.8,1.1-1.4,1.8-1.8c0.9-0.5,1.9-0.8,2.9-0.9c1.2-0.1,2.5-0.1,3.7,0.2
		v2.4c-0.5,0-1,0-1.5,0c-0.4,0-0.9,0.1-1.3,0.2c-0.5,0.1-1,0.2-1.5,0.4c-0.3,0.1-0.6,0.3-0.9,0.5c-0.1,0.1-0.2,0.2-0.3,0.3
		c-0.1,0.1-0.1,0.2-0.2,0.3c0,0.1-0.1,0.3-0.1,0.5s-0.1,0.4-0.1,0.6V30H30.6L30.6,30z"/>
	<path class="st1" d="M59.3,17.2c0.5,0.9,0.8,1.9,0.8,3v4c0,0.8-0.2,1.6-0.4,2.3c-0.3,0.7-0.7,1.3-1.3,1.8c-0.5,0.5-1.2,0.9-1.9,1.1
		c-0.7,0.3-1.5,0.5-2.2,0.6c-0.5,0.1-1.1,0.1-1.6,0.2c-0.5,0-1.1,0-1.7,0s-1.3,0-1.9-0.1c-0.6,0-1.2-0.1-1.8-0.2s-1.1-0.2-1.6-0.5
		c-0.5-0.2-1-0.5-1.5-0.8c-0.3-0.2-0.6-0.5-0.8-0.7c-0.3-0.3-0.5-0.6-0.7-0.9c-0.3-0.4-0.5-0.9-0.6-1.4s-0.2-1-0.2-1.6v-4
		c0-1,0.2-2.1,0.8-3c0.2-0.3,0.4-0.6,0.7-0.9c0.3-0.3,0.5-0.5,0.8-0.7c0.5-0.3,1-0.6,1.5-0.7c0.5-0.2,1.1-0.3,1.6-0.5
		c2.5-0.4,5-0.4,7.4,0c0.5,0.1,1.1,0.3,1.6,0.5s1,0.4,1.4,0.7C58.4,16,58.9,16.5,59.3,17.2z M56.8,20.2c0-0.2,0-0.4-0.1-0.6
		c0-0.2-0.1-0.3-0.1-0.5c-0.1-0.2-0.3-0.5-0.5-0.6c-0.4-0.4-1.2-0.8-2.4-1c-0.9-0.1-1.8-0.2-2.8-0.2c-0.9,0-1.9,0-2.8,0.2
		c-1.2,0.2-1.9,0.5-2.4,1c-0.2,0.2-0.4,0.4-0.5,0.6c-0.1,0.3-0.2,0.7-0.2,1.1v4c0,0.4,0,0.7,0.2,1.1c0.1,0.3,0.2,0.5,0.5,0.6
		c0.3,0.2,0.6,0.4,0.9,0.5c0.5,0.2,1,0.3,1.5,0.4c0.4,0.1,0.8,0.1,1.3,0.1s1,0,1.5,0c0.6,0,1.1,0,1.7,0c0.5,0,1-0.1,1.4-0.2
		c0.7-0.1,1.3-0.4,1.8-0.7c0.2-0.1,0.4-0.4,0.6-0.6c0.1-0.2,0.2-0.4,0.2-0.5c0.1-0.2,0.1-0.5,0.1-0.8L56.8,20.2L56.8,20.2z"/>
	<path class="st1" d="M78.7,23.7c0.5,0.9,0.8,1.9,0.8,3V30h-3.3v-3.3c0-0.4-0.1-0.7-0.2-1.1c-0.1-0.2-0.2-0.5-0.5-0.6
		c-0.4-0.4-1.2-0.7-2.4-0.9L72.6,24c-0.2,0-0.3,0-0.5-0.1l-0.5-0.1c-0.2,0-0.4,0-0.7,0s-0.5,0-0.7,0h-0.5c-0.2,0-0.3,0-0.5,0.1
		L68.8,24c-1.2,0.2-2,0.5-2.4,0.9c-0.2,0.2-0.3,0.4-0.5,0.6c0,0.1-0.1,0.3-0.1,0.5s-0.1,0.4-0.1,0.6V30h-3.3v-3.3c0-1,0.2-2.1,0.8-3
		c0.4-0.6,0.8-1.1,1.4-1.5c-0.6-0.4-1-0.9-1.4-1.5c-0.3-0.4-0.5-0.9-0.6-1.4s-0.2-1-0.2-1.6v-3.3h3.3v3.3c0,0.2,0,0.4,0.1,0.6
		c0,0.2,0.1,0.3,0.1,0.5c0.1,0.2,0.3,0.5,0.5,0.6c0.3,0.2,0.6,0.4,0.9,0.5c0.5,0.2,1,0.3,1.5,0.4l0.5,0.1c0.2,0,0.3,0,0.5,0.1h0.5
		c0.2,0,0.4,0,0.7,0s0.5,0,0.7,0h0.5c0.2,0,0.3,0,0.5-0.1l0.5-0.1c0.5-0.1,1-0.2,1.5-0.4c0.3-0.1,0.6-0.3,0.9-0.5
		c0.2-0.2,0.4-0.4,0.5-0.6c0.1-0.3,0.2-0.7,0.2-1.1v-3.3h3.3v3.3c0,0.5-0.1,1.1-0.2,1.6s-0.3,1-0.6,1.4c-0.3,0.6-0.8,1.1-1.4,1.5
		c0.3,0.2,0.5,0.4,0.8,0.7C78.3,23.1,78.5,23.4,78.7,23.7z"/>
	<path class="st1" d="M85.7,9.3c0,0.4-0.1,0.7-0.3,1s-0.5,0.5-0.8,0.6s-0.7,0.2-1,0.1s-0.7-0.2-0.9-0.5c-0.2-0.2-0.3-0.4-0.4-0.6
		s-0.1-0.4-0.1-0.7c0-0.2,0-0.5,0.1-0.7s0.2-0.4,0.4-0.6c0.2-0.2,0.3-0.3,0.6-0.4c0.2-0.1,0.4-0.1,0.7-0.1s0.5,0.1,0.7,0.1
		c0.2,0.1,0.4,0.2,0.6,0.4s0.3,0.4,0.4,0.6C85.7,8.9,85.8,9.1,85.7,9.3z M82.3,30h3.3V14.4h-3.3V30z"/>
	<path class="st2" d="M92,19.1c-0.1,0.3-0.2,0.7-0.2,1.1v0.4h8.9c1.5,0,2.7,0.3,3.3,0.9c0.4,0.4,0.6,0.8,0.8,1.2s0.2,1,0.2,1.5
		s-0.1,1.1-0.2,1.6s-0.3,1-0.6,1.4c-0.2,0.3-0.4,0.6-0.7,0.9c-0.3,0.3-0.5,0.5-0.8,0.7c-0.5,0.3-1,0.6-1.5,0.8
		c-0.5,0.2-1.1,0.4-1.6,0.5c-0.6,0.1-1.2,0.2-1.8,0.2c-0.6,0-1.3,0.1-1.9,0.1c-1.1,0-2.1,0-3-0.1s-1.7-0.2-2.3-0.3
		c-0.7-0.1-1.4-0.2-2.1-0.4V27H96c0.5,0,1,0,1.5,0c0.4,0,0.9-0.1,1.3-0.2c0.5-0.1,1-0.2,1.5-0.4c0.3-0.1,0.6-0.3,0.9-0.5
		c0.1-0.1,0.2-0.2,0.3-0.3c0.1-0.1,0.1-0.2,0.2-0.3c0-0.1,0.1-0.3,0.1-0.5s0.1-0.4,0.1-0.6v-0.4H93c-1.5,0-2.7-0.3-3.3-0.9
		c-0.4-0.4-0.6-0.8-0.8-1.2c-0.2-0.5-0.2-1-0.2-1.5s0.1-1.1,0.2-1.6s0.3-1,0.6-1.4c0.4-0.6,0.9-1.2,1.5-1.6c0.4-0.3,0.9-0.6,1.4-0.8
		s1.1-0.4,1.6-0.5c1.2-0.2,2.5-0.3,3.7-0.3c1.1,0,2.1,0,3,0.1s1.7,0.2,2.4,0.3c0.8,0.1,1.5,0.3,2.1,0.4v2.5h-7.5
		c-0.9,0-1.9,0-2.8,0.2c-0.5,0.1-1,0.2-1.5,0.4c-0.3,0.1-0.6,0.3-0.9,0.5C92.2,18.6,92.1,18.8,92,19.1z"/>
	<path class="st2" d="M114.3,13.9v3.3h-3.4V30h-3.3V9.3h3.3v4.5L114.3,13.9L114.3,13.9z"/>
	<path class="st2" d="M138.3,30V19.6c0-1,0.2-1.9,0.6-2.8c0.4-0.8,1.1-1.4,1.8-1.8c0.9-0.5,1.9-0.8,2.9-0.9c1.2-0.1,2.5-0.1,3.7,0.2
		v2.4c-0.5,0-1,0-1.5,0c-0.4,0-0.9,0.1-1.3,0.2c-0.5,0.1-1,0.2-1.5,0.4c-0.3,0.1-0.6,0.3-0.9,0.5c-0.1,0.1-0.2,0.2-0.3,0.3
		c-0.1,0.1-0.1,0.2-0.2,0.3c0,0.1-0.1,0.3-0.1,0.5s-0.1,0.4-0.1,0.6V30C141.6,30,138.3,30,138.3,30z"/>
	<path class="st2" d="M166.1,27v2.4c-0.7,0.2-1.4,0.3-2.1,0.4c-0.7,0.1-1.4,0.2-2.3,0.3c-0.9,0.1-1.9,0.1-3,0.1
		c-0.7,0-1.3,0-1.9-0.1c-0.6,0-1.2-0.1-1.8-0.2s-1.1-0.3-1.6-0.5s-1-0.5-1.5-0.8c-0.3-0.2-0.6-0.4-0.8-0.7c-0.3-0.3-0.5-0.6-0.7-0.9
		c-0.3-0.4-0.5-0.9-0.6-1.4s-0.2-1-0.2-1.6v-4c0-0.8,0.1-1.6,0.5-2.3c0.1-0.4,0.3-0.7,0.5-1s0.4-0.6,0.7-0.9
		c0.6-0.5,1.2-0.9,1.9-1.1c0.7-0.3,1.4-0.5,2.2-0.6c0.5-0.1,1.1-0.1,1.6-0.2s1.1-0.1,1.7-0.1c1.2,0,2.5,0.1,3.7,0.3
		c0.5,0.1,1.1,0.3,1.6,0.5s1,0.4,1.5,0.8c0.3,0.2,0.6,0.5,0.9,0.7c0.3,0.3,0.5,0.6,0.7,0.9c0.5,0.9,0.8,1.9,0.8,3v3.6H153V24
		c0,0.2,0,0.4,0.1,0.6c0,0.2,0.1,0.3,0.1,0.5c0.1,0.1,0.1,0.2,0.2,0.3s0.2,0.2,0.3,0.3c0.3,0.2,0.6,0.4,0.9,0.5
		c0.5,0.2,1,0.3,1.5,0.4c0.4,0.1,0.9,0.1,1.3,0.2c0.5,0,1,0,1.5,0L166.1,27z M152.8,20.5h11.7v-0.3c0-0.2,0-0.4-0.1-0.6
		s-0.1-0.3-0.1-0.5c-0.1-0.2-0.3-0.5-0.5-0.6c-0.3-0.2-0.6-0.4-0.9-0.5c-0.5-0.2-1-0.3-1.5-0.4c-0.9-0.1-1.8-0.2-2.8-0.2
		s-2.1,0.1-3.1,0.2c-0.4,0.1-0.8,0.2-1.1,0.3c-0.3,0.1-0.5,0.2-0.8,0.4c-0.1,0.1-0.2,0.2-0.3,0.3c-0.1,0.1-0.2,0.2-0.2,0.3
		c-0.1,0.2-0.1,0.4-0.2,0.5c-0.1,0.3-0.1,0.5-0.1,0.8L152.8,20.5L152.8,20.5z"/>
	<path class="st2" d="M125.6,43c-0.2,0-0.4-0.1-0.5-0.2c-0.2-0.1-0.3-0.3-0.3-0.5L122,31.1c-0.4-0.1-0.8-0.3-1.2-0.5
		c-0.5-0.3-1.1-0.6-1.5-1c-1.4-1.1-2.5-2.5-3.2-4c-0.7-1.6-1-3.4-0.8-5.1s0.8-3.4,1.8-4.8s2.3-2.6,3.9-3.4c1.6-0.8,3.3-1.1,5-1.1
		c1.7,0.1,3.4,0.6,4.9,1.5s2.7,2.2,3.6,3.7c0.9,1.5,1.3,3.2,1.3,5c0,2.1-0.6,4.1-1.9,5.9c-1.2,1.7-2.9,3-4.9,3.8l-2.7,11.1
		c0,0.2-0.2,0.4-0.3,0.5C125.9,42.9,125.8,43,125.6,43z M125.6,13.1c-1.8,0-3.4,0.6-4.9,1.6c-1.4,1-2.5,2.5-3,4.1s-0.6,3.4-0.1,5.1
		s1.5,3.1,2.9,4.2c0.4,0.3,0.8,0.6,1.2,0.8c0.4,0.2,0.9,0.4,1.4,0.6c0.2,0,0.3,0.1,0.4,0.2s0.2,0.2,0.2,0.4l1.8,7.6l1.8-7.5l0,0
		c0-0.1,0.1-0.3,0.2-0.4s0.2-0.2,0.4-0.2c1.7-0.5,3.2-1.6,4.3-3c1.1-1.4,1.6-3.2,1.7-4.9v-0.1c0-2.2-0.9-4.3-2.5-5.9
		C129.9,14,127.8,13.1,125.6,13.1L125.6,13.1z"/>
	<path class="st2" d="M125.6,25.2c-0.8,0-1.5-0.2-2.1-0.6s-1.1-1-1.4-1.7s-0.4-1.5-0.2-2.2c0.2-0.7,0.5-1.4,1-1.9s1.2-0.9,1.9-1
		c0.7-0.1,1.5-0.1,2.2,0.2c0.7,0.3,1.3,0.8,1.7,1.4s0.6,1.4,0.6,2.1c0,1-0.4,2-1.1,2.7C127.5,24.8,126.6,25.2,125.6,25.2z
		 M125.6,19.4c-0.4,0-0.8,0.1-1.1,0.3s-0.6,0.5-0.7,0.9c-0.2,0.4-0.2,0.8-0.1,1.2c0.1,0.4,0.3,0.8,0.6,1c0.3,0.3,0.6,0.5,1,0.5
		s0.8,0,1.2-0.1c0.4-0.1,0.7-0.4,0.9-0.7c0.2-0.3,0.3-0.7,0.3-1.1c0-0.3-0.1-0.5-0.2-0.8s-0.2-0.5-0.4-0.6c-0.2-0.2-0.4-0.3-0.7-0.4
		C126.1,19.5,125.8,19.4,125.6,19.4z"/>
	<g>
		<path class="st2" d="M23,36.5c0.5,0.2,0.8,0.6,1.1,1c0.3,0.4,0.4,1,0.4,1.5c0,0.6-0.1,1.1-0.4,1.5c-0.3,0.4-0.6,0.8-1.1,1
			s-1,0.3-1.6,0.3h-1.9v-5.8h1.9C22,36.1,22.6,36.2,23,36.5z M23,40.6c0.4-0.4,0.5-0.9,0.5-1.6c0-0.7-0.2-1.2-0.5-1.6
			c-0.4-0.4-0.9-0.6-1.6-0.6h-0.9v4.3h0.9C22.1,41.1,22.6,41,23,40.6z"/>
		<path class="st2" d="M25.5,36.5c-0.1-0.1-0.2-0.3-0.2-0.4c0-0.2,0.1-0.3,0.2-0.4c0.1-0.1,0.3-0.2,0.4-0.2c0.2,0,0.3,0.1,0.4,0.2
			c0.1,0.1,0.2,0.3,0.2,0.4c0,0.2-0.1,0.3-0.2,0.4c-0.1,0.1-0.3,0.2-0.4,0.2C25.8,36.7,25.6,36.7,25.5,36.5z M26.4,37.3v4.6h-1v-4.6
			H26.4z"/>
		<path class="st2" d="M30.4,37.5c0.3,0.1,0.5,0.3,0.6,0.5v-0.7h1V42c0,0.4-0.1,0.8-0.3,1.1c-0.2,0.3-0.4,0.6-0.8,0.8
			c-0.3,0.2-0.7,0.3-1.2,0.3c-0.6,0-1.1-0.1-1.6-0.4c-0.4-0.3-0.6-0.7-0.7-1.2h0.9c0.1,0.2,0.2,0.4,0.5,0.6c0.2,0.1,0.5,0.2,0.8,0.2
			c0.4,0,0.7-0.1,0.9-0.4c0.2-0.2,0.4-0.6,0.4-1v-0.8c-0.2,0.2-0.4,0.4-0.7,0.5c-0.3,0.1-0.6,0.2-0.9,0.2c-0.4,0-0.8-0.1-1.1-0.3
			c-0.3-0.2-0.6-0.5-0.8-0.9c-0.2-0.4-0.3-0.8-0.3-1.2c0-0.5,0.1-0.9,0.3-1.2c0.2-0.4,0.5-0.6,0.8-0.8c0.3-0.2,0.7-0.3,1.1-0.3
			C29.9,37.2,30.2,37.3,30.4,37.5z M30.9,38.8c-0.1-0.2-0.3-0.4-0.5-0.5c-0.2-0.1-0.4-0.2-0.7-0.2c-0.2,0-0.5,0.1-0.7,0.2
			c-0.2,0.1-0.4,0.3-0.5,0.5c-0.1,0.2-0.2,0.5-0.2,0.8s0.1,0.6,0.2,0.8c0.1,0.2,0.3,0.4,0.5,0.5c0.2,0.1,0.4,0.2,0.7,0.2
			c0.2,0,0.5-0.1,0.7-0.2s0.4-0.3,0.5-0.5s0.2-0.5,0.2-0.8S31,39,30.9,38.8z"/>
		<path class="st2" d="M33.4,36.5c-0.1-0.1-0.2-0.3-0.2-0.4c0-0.2,0.1-0.3,0.2-0.4c0.1-0.1,0.3-0.2,0.4-0.2c0.2,0,0.3,0.1,0.4,0.2
			c0.1,0.1,0.2,0.3,0.2,0.4c0,0.2-0.1,0.3-0.2,0.4c-0.1,0.1-0.3,0.2-0.4,0.2C33.6,36.7,33.5,36.7,33.4,36.5z M34.3,37.3v4.6h-1v-4.6
			H34.3z"/>
		<path class="st2" d="M36.6,38.1v2.5c0,0.2,0,0.3,0.1,0.4s0.2,0.1,0.4,0.1h0.6v0.8H37c-0.4,0-0.8-0.1-1-0.3c-0.2-0.2-0.3-0.5-0.3-1
			v-2.5h-0.5v-0.8h0.5v-1.1h1v1.1h1.1v0.8H36.6z"/>
		<path class="st2" d="M38.6,38.4c0.2-0.4,0.5-0.6,0.8-0.8c0.3-0.2,0.7-0.3,1.1-0.3c0.4,0,0.7,0.1,0.9,0.2s0.5,0.3,0.6,0.5v-0.7h1
			v4.6h-1v-0.7c-0.2,0.2-0.4,0.4-0.7,0.5c-0.3,0.1-0.6,0.2-1,0.2c-0.4,0-0.8-0.1-1.1-0.3c-0.3-0.2-0.6-0.5-0.8-0.9
			c-0.2-0.4-0.3-0.8-0.3-1.2C38.3,39.1,38.4,38.7,38.6,38.4z M41.9,38.8c-0.1-0.2-0.3-0.4-0.5-0.5c-0.2-0.1-0.4-0.2-0.7-0.2
			c-0.2,0-0.5,0.1-0.7,0.2c-0.2,0.1-0.4,0.3-0.5,0.5c-0.1,0.2-0.2,0.5-0.2,0.8s0.1,0.6,0.2,0.8c0.1,0.2,0.3,0.4,0.5,0.5
			c0.2,0.1,0.4,0.2,0.7,0.2c0.2,0,0.5-0.1,0.7-0.2s0.4-0.3,0.5-0.5c0.1-0.2,0.2-0.5,0.2-0.8S42,39,41.9,38.8z"/>
		<path class="st2" d="M45.2,35.7v6.2h-1v-6.2H45.2z"/>
		<path class="st2" d="M52.2,40.7h-2.4l-0.4,1.2h-1l2.1-5.8h1.1l2.1,5.8h-1L52.2,40.7z M51.9,40L51,37.3L50,40H51.9z"/>
		<path class="st2" d="M54.5,38.4c0.2-0.4,0.5-0.6,0.8-0.8c0.3-0.2,0.7-0.3,1.1-0.3c0.3,0,0.6,0.1,0.9,0.2c0.3,0.1,0.5,0.3,0.7,0.5
			v-2.2h1v6.2h-1v-0.7c-0.2,0.2-0.4,0.4-0.6,0.6C57,41.9,56.7,42,56.3,42c-0.4,0-0.8-0.1-1.1-0.3c-0.3-0.2-0.6-0.5-0.8-0.9
			c-0.2-0.4-0.3-0.8-0.3-1.2C54.2,39.1,54.3,38.7,54.5,38.4z M57.7,38.8c-0.1-0.2-0.3-0.4-0.5-0.5c-0.2-0.1-0.4-0.2-0.7-0.2
			c-0.2,0-0.5,0.1-0.7,0.2c-0.2,0.1-0.4,0.3-0.5,0.5c-0.1,0.2-0.2,0.5-0.2,0.8s0.1,0.6,0.2,0.8c0.1,0.2,0.3,0.4,0.5,0.5
			c0.2,0.1,0.4,0.2,0.7,0.2c0.2,0,0.5-0.1,0.7-0.2c0.2-0.1,0.4-0.3,0.5-0.5s0.2-0.5,0.2-0.8S57.9,39,57.7,38.8z"/>
		<path class="st2" d="M63.2,41.8c-0.3-0.1-0.6-0.3-0.7-0.6c-0.2-0.3-0.3-0.5-0.3-0.9h1c0,0.3,0.1,0.5,0.3,0.6
			c0.2,0.2,0.4,0.2,0.7,0.2c0.3,0,0.6-0.1,0.8-0.2c0.2-0.2,0.3-0.4,0.3-0.6c0-0.2-0.1-0.4-0.2-0.5c-0.1-0.1-0.3-0.2-0.4-0.3
			c-0.2-0.1-0.4-0.1-0.7-0.2c-0.4-0.1-0.7-0.2-0.9-0.3c-0.2-0.1-0.4-0.3-0.6-0.5c-0.2-0.2-0.3-0.5-0.3-0.9c0-0.3,0.1-0.6,0.3-0.9
			c0.2-0.3,0.4-0.4,0.7-0.6c0.3-0.1,0.6-0.2,1-0.2c0.6,0,1,0.1,1.4,0.4c0.4,0.3,0.6,0.7,0.6,1.2h-1.1c0-0.2-0.1-0.4-0.3-0.5
			c-0.2-0.2-0.4-0.2-0.7-0.2c-0.3,0-0.5,0.1-0.7,0.2c-0.2,0.1-0.3,0.3-0.3,0.6c0,0.2,0.1,0.3,0.2,0.4c0.1,0.1,0.2,0.2,0.4,0.3
			c0.2,0.1,0.4,0.1,0.7,0.2c0.4,0.1,0.7,0.2,0.9,0.3c0.2,0.1,0.4,0.3,0.6,0.5c0.2,0.2,0.3,0.5,0.3,0.9c0,0.3-0.1,0.6-0.2,0.8
			c-0.2,0.3-0.4,0.5-0.7,0.6C65,41.9,64.6,42,64.2,42C63.8,42,63.5,41.9,63.2,41.8z"/>
		<path class="st2" d="M68.2,41.7c-0.4-0.2-0.6-0.5-0.8-0.8c-0.2-0.4-0.3-0.8-0.3-1.2c0-0.5,0.1-0.9,0.3-1.2s0.5-0.6,0.8-0.8
			c0.4-0.2,0.8-0.3,1.2-0.3c0.4,0,0.8,0.1,1.2,0.3c0.4,0.2,0.6,0.5,0.8,0.8s0.3,0.8,0.3,1.2c0,0.5-0.1,0.9-0.3,1.2
			c-0.2,0.4-0.5,0.6-0.9,0.8c-0.4,0.2-0.8,0.3-1.2,0.3C68.9,42,68.5,41.9,68.2,41.7z M70,41c0.2-0.1,0.4-0.3,0.5-0.5
			c0.1-0.2,0.2-0.5,0.2-0.9c0-0.3-0.1-0.6-0.2-0.8c-0.1-0.2-0.3-0.4-0.5-0.5c-0.2-0.1-0.4-0.2-0.7-0.2s-0.5,0.1-0.7,0.2
			c-0.2,0.1-0.4,0.3-0.5,0.5C68.1,39,68,39.3,68,39.6c0,0.5,0.1,0.9,0.4,1.1c0.3,0.3,0.6,0.4,1,0.4C69.6,41.2,69.8,41.1,70,41z"/>
		<path class="st2" d="M73.6,35.7v6.2h-1v-6.2H73.6z"/>
		<path class="st2" d="M79.1,37.3v4.6h-1v-0.5c-0.2,0.2-0.3,0.3-0.6,0.4C77.3,41.9,77,42,76.8,42c-0.4,0-0.7-0.1-1-0.2
			c-0.3-0.2-0.5-0.4-0.7-0.7c-0.2-0.3-0.2-0.7-0.2-1.1v-2.7h0.9v2.6c0,0.4,0.1,0.7,0.3,0.9c0.2,0.2,0.5,0.3,0.8,0.3
			c0.4,0,0.6-0.1,0.8-0.3c0.2-0.2,0.3-0.5,0.3-0.9v-2.6H79.1z"/>
		<path class="st2" d="M81.4,38.1v2.5c0,0.2,0,0.3,0.1,0.4s0.2,0.1,0.4,0.1h0.6v0.8h-0.8c-0.4,0-0.8-0.1-1-0.3
			c-0.2-0.2-0.3-0.5-0.3-1v-2.5h-0.5v-0.8h0.5v-1.1h1v1.1h1.1v0.8H81.4z"/>
		<path class="st2" d="M83.5,36.5c-0.1-0.1-0.2-0.3-0.2-0.4c0-0.2,0.1-0.3,0.2-0.4c0.1-0.1,0.3-0.2,0.4-0.2c0.2,0,0.3,0.1,0.4,0.2
			c0.1,0.1,0.2,0.3,0.2,0.4c0,0.2-0.1,0.3-0.2,0.4c-0.1,0.1-0.3,0.2-0.4,0.2C83.7,36.7,83.6,36.7,83.5,36.5z M84.4,37.3v4.6h-1v-4.6
			H84.4z"/>
		<path class="st2" d="M86.4,41.7c-0.4-0.2-0.6-0.5-0.8-0.8c-0.2-0.4-0.3-0.8-0.3-1.2c0-0.5,0.1-0.9,0.3-1.2
			c0.2-0.4,0.5-0.6,0.8-0.8c0.4-0.2,0.8-0.3,1.2-0.3c0.4,0,0.8,0.1,1.2,0.3c0.4,0.2,0.6,0.5,0.8,0.8c0.2,0.4,0.3,0.8,0.3,1.2
			c0,0.5-0.1,0.9-0.3,1.2c-0.2,0.4-0.5,0.6-0.9,0.8c-0.4,0.2-0.8,0.3-1.2,0.3C87.2,42,86.8,41.9,86.4,41.7z M88.3,41
			c0.2-0.1,0.4-0.3,0.5-0.5C89,40.2,89,40,89,39.6c0-0.3-0.1-0.6-0.2-0.8c-0.1-0.2-0.3-0.4-0.5-0.5c-0.2-0.1-0.4-0.2-0.7-0.2
			s-0.5,0.1-0.7,0.2c-0.2,0.1-0.4,0.3-0.5,0.5c-0.1,0.2-0.2,0.5-0.2,0.8c0,0.5,0.1,0.9,0.4,1.1c0.3,0.3,0.6,0.4,1,0.4
			C87.9,41.2,88.1,41.1,88.3,41z"/>
		<path class="st2" d="M94.3,37.5c0.3,0.2,0.5,0.4,0.7,0.7c0.2,0.3,0.2,0.7,0.2,1.1v2.7h-0.9v-2.6c0-0.4-0.1-0.7-0.3-0.9
			c-0.2-0.2-0.5-0.3-0.8-0.3c-0.4,0-0.6,0.1-0.8,0.3c-0.2,0.2-0.3,0.5-0.3,0.9v2.6h-1v-4.6h1v0.5c0.2-0.2,0.4-0.3,0.6-0.4
			c0.2-0.1,0.5-0.2,0.8-0.2C93.6,37.2,94,37.3,94.3,37.5z"/>
		<path class="st2" d="M97.1,41.8c-0.3-0.1-0.5-0.3-0.7-0.5c-0.2-0.2-0.3-0.5-0.3-0.8h1c0,0.2,0.1,0.4,0.3,0.5
			c0.2,0.1,0.4,0.2,0.6,0.2c0.3,0,0.5-0.1,0.6-0.2c0.1-0.1,0.2-0.2,0.2-0.4c0-0.2-0.1-0.3-0.2-0.4c-0.2-0.1-0.4-0.2-0.8-0.3
			c-0.3-0.1-0.6-0.2-0.8-0.3c-0.2-0.1-0.4-0.2-0.6-0.4c-0.2-0.2-0.2-0.4-0.2-0.7c0-0.2,0.1-0.5,0.2-0.7c0.1-0.2,0.4-0.4,0.6-0.5
			c0.3-0.1,0.6-0.2,0.9-0.2c0.5,0,0.9,0.1,1.3,0.4c0.3,0.3,0.5,0.6,0.5,1.1h-1c0-0.2-0.1-0.4-0.3-0.5c-0.2-0.1-0.4-0.2-0.6-0.2
			c-0.3,0-0.4,0-0.6,0.1c-0.1,0.1-0.2,0.2-0.2,0.4c0,0.1,0,0.2,0.1,0.3c0.1,0.1,0.2,0.1,0.3,0.2s0.3,0.1,0.6,0.2
			c0.3,0.1,0.6,0.2,0.8,0.3c0.2,0.1,0.4,0.2,0.6,0.4c0.2,0.2,0.2,0.4,0.2,0.7c0,0.3-0.1,0.5-0.2,0.7c-0.1,0.2-0.3,0.4-0.6,0.5
			c-0.3,0.1-0.6,0.2-0.9,0.2C97.7,42,97.4,41.9,97.1,41.8z"/>
	</g>
</g>
</svg>
