<svg width="4278" height="1563" viewBox="0 0 4278 1563" fill="none" xmlns="http://www.w3.org/2000/svg">
<path d="M1752.4 567.547L1569.03 1067.98H1491.79L1307.52 567.547H1392.43L1532.44 953.608L1673.81 567.547H1752.4Z" fill="white"/>
<path d="M2066.29 905.82H1814.27C1817.88 932.667 1830.53 956.83 1849.05 972.401C1867.57 989.046 1891.05 997.1 1918.6 997.1C1953.83 997.1 1982.74 983.14 2005.77 955.756L2045.97 1010.52C2031.51 1031.46 2012.54 1047.04 1991.32 1057.24C1936.67 1080.86 1876.15 1077.64 1823.3 1048.11C1797.56 1032.54 1775.88 1008.38 1760.98 978.308C1746.07 947.702 1738.39 912.801 1738.85 877.362C1738.39 842.461 1745.62 807.56 1760.07 776.954C1774.07 747.423 1794.4 723.26 1819.24 707.152C1845.44 689.97 1874.79 681.379 1904.6 682.453C1933.96 681.916 1962.86 690.507 1988.61 707.152C2013 723.26 2032.87 747.423 2046.42 776.418C2060.42 808.097 2067.65 843.535 2067.19 879.51C2067.65 885.417 2067.19 894.545 2066.29 905.82ZM1844.08 779.102C1827.37 796.284 1816.53 820.447 1813.82 846.757H1996.29C1994.03 820.984 1983.19 796.821 1966.93 779.639C1930.8 744.738 1879.76 744.738 1844.08 779.102Z" fill="white"/>
<path d="M2325.54 681.916V767.289C2319.67 765.679 2313.79 765.142 2307.92 765.142C2278.57 765.142 2255.98 775.344 2239.27 795.747C2222.56 816.151 2214.43 845.146 2214.43 883.269V1068.51H2139.01V686.748H2210.82V742.59C2232.95 701.783 2271.34 681.916 2325.54 681.916Z" fill="white"/>
<path d="M2594.72 1047.57C2585.23 1056.7 2574.4 1063.14 2562.65 1066.9C2549.55 1071.2 2536.01 1073.35 2522.91 1073.35C2487.68 1073.35 2460.13 1062.61 2441.16 1040.59C2422.19 1018.58 2412.25 986.899 2412.25 945.017V761.383H2358.96V689.97H2411.8V602.985H2487.23V689.97H2573.04V761.383H2487.23V942.869C2487.23 961.662 2490.84 975.623 2498.52 985.288C2506.2 994.953 2517.04 999.785 2531.49 999.785C2546.84 1000.32 2561.3 994.953 2573.49 984.214L2594.72 1047.57Z" fill="white"/>
<path d="M2967.33 686.211V1067.98H2895.97V1019.12C2883.77 1036.3 2868.42 1050.26 2850.8 1058.85C2832.29 1068.51 2812.41 1072.81 2792.54 1072.81C2749.64 1072.81 2715.76 1058.85 2690.92 1030.39C2666.08 1001.93 2653.89 960.052 2653.89 904.21V686.211H2729.31V892.397C2729.31 926.761 2735.63 952.534 2748.73 969.18C2761.83 985.825 2780.35 994.416 2804.28 994.416C2830.93 994.416 2852.61 984.751 2868.42 964.884C2884.23 945.017 2892.36 916.559 2892.36 879.51V686.211H2967.33Z" fill="white"/>
<path d="M3122.7 1048.11C3097.4 1032 3076.18 1007.84 3061.72 978.308C3032.37 915.485 3032.37 839.24 3061.72 776.418C3076.18 746.886 3097.4 722.723 3122.7 707.152C3178.25 673.862 3243.29 673.862 3298.84 707.152C3324.13 723.26 3345.36 746.886 3359.81 776.418C3389.17 839.24 3389.17 915.485 3359.81 978.308C3345.36 1007.84 3324.13 1032 3298.84 1048.11C3243.29 1081.4 3178.25 1081.4 3122.7 1048.11ZM3278.97 963.81C3297.03 941.796 3306.07 913.338 3306.07 877.363C3306.07 841.387 3297.03 812.93 3278.97 790.915C3240.58 746.886 3180.51 746.886 3142.12 790.915C3124.05 812.93 3115.47 841.924 3115.47 877.363C3115.47 913.338 3124.5 941.796 3142.12 963.81C3180.06 1007.3 3241.03 1007.3 3278.97 963.81Z" fill="white"/>
<path d="M3699.9 996.564V1067.98H3422.59V1011.6L3598.73 757.625H3426.2V686.211H3694.93V742.59L3518.34 996.564H3699.9Z" fill="white"/>
<path d="M4000.7 722.186C4025.99 749.033 4038.19 789.841 4038.19 844.072V1067.98H3967.28V1021.26C3957.79 1038.44 3943.79 1051.87 3927.99 1059.39C3908.56 1068.51 3887.34 1073.35 3866.11 1072.81C3844.43 1073.35 3822.75 1068.51 3802.88 1058.31C3786.17 1049.72 3771.72 1035.76 3760.88 1017.5C3750.94 1000.32 3745.97 979.381 3745.97 958.441C3745.07 926.224 3756.81 895.619 3778.04 875.752C3799.72 854.811 3833.14 844.609 3879.66 844.609H3962.76V838.703C3962.76 811.856 3955.99 791.452 3942.44 777.491C3928.89 763.531 3909.02 756.014 3882.82 756.014C3864.75 756.014 3847.14 759.235 3829.98 766.216C3813.72 772.122 3798.81 781.787 3785.72 794.137L3756.36 729.167C3774.43 713.058 3795.2 701.246 3817.33 694.265C3841.72 686.211 3867.01 681.916 3892.31 681.916C3939.28 681.916 3975.41 695.339 4000.7 722.186ZM3932.05 992.805C3946.5 983.14 3957.34 967.569 3962.76 948.776V904.21H3885.08C3841.72 904.21 3820.04 921.392 3820.04 955.219C3819.59 970.253 3825.91 984.751 3836.3 993.879C3847.14 1003.54 3862.05 1008.38 3881.47 1008.38C3899.53 1008.38 3916.69 1003.01 3932.05 992.805Z" fill="white"/>
<path fill-rule="evenodd" clip-rule="evenodd" d="M866.713 1280.61H652.18C613.338 1280.61 582.175 1243.56 582.175 1197.38C582.175 1151.2 613.338 1114.15 652.18 1114.15H866.713C905.555 1114.15 936.719 1151.2 936.719 1197.38C936.719 1243.56 905.103 1280.61 866.713 1280.61ZM840.518 919.781C840.518 873.604 809.354 836.555 770.512 836.555H550.108C511.266 836.555 480.102 873.604 480.102 919.781C480.102 965.958 511.266 1003.01 550.108 1003.01H770.512C809.354 1003.01 840.518 965.421 840.518 919.781ZM1045.57 919.781C1045.57 873.604 1014.4 836.555 975.56 836.555H940.332C901.49 836.555 870.326 873.604 870.326 919.781C870.326 965.958 901.49 1003.01 940.332 1003.01H975.56C1013.95 1003.01 1045.57 965.421 1045.57 919.781ZM1168.87 641.108C1168.87 594.931 1137.7 557.882 1098.86 557.882H744.316C705.475 557.882 674.311 594.931 674.311 641.108C674.311 687.285 705.475 724.334 744.316 724.334H1098.86C1137.7 724.334 1168.87 687.285 1168.87 641.108ZM644.05 641.108C644.05 594.931 612.887 557.882 574.045 557.882H426.356C387.514 557.882 356.35 594.931 356.35 641.108C356.35 687.285 387.514 724.334 426.356 724.334H574.045C612.435 724.334 644.05 687.285 644.05 641.108ZM906.458 362.436C906.458 316.259 875.294 279.21 836.453 279.21H309.379C270.989 279.21 239.374 316.796 239.374 362.436C239.374 408.613 270.989 445.662 309.379 445.662H836.453C875.294 445.662 906.458 408.613 906.458 362.436ZM1261 362.973C1261 316.796 1229.84 279.747 1191 279.747H1007.18C968.334 279.747 937.17 316.796 937.17 362.973C937.17 409.15 968.334 446.199 1007.18 446.199H1191.45C1229.84 445.662 1261 408.613 1261 362.973Z" fill="url(#paint0_linear_2_12)"/>
<defs>
<linearGradient id="paint0_linear_2_12" x1="452.592" y1="779.908" x2="1129.39" y2="779.908" gradientUnits="userSpaceOnUse">
<stop stop-color="#003FDA"/>
<stop offset="0.3645" stop-color="#5B0093"/>
<stop offset="1" stop-color="#FF4117"/>
</linearGradient>
</defs>
</svg>
